<svg xmlns="http://www.w3.org/2000/svg" viewBox="0 0 16 16" id="Home-6-Line--Streamline-Mingcute" height="16" width="16">
  <desc>
    Home 6 Line Streamline Icon: https://streamlinehq.com
  </desc>
  <g fill="none" fill-rule="evenodd">
    <path d="M16 0v16H0V0h16ZM8.395333333333333 15.505333333333333l-0.007333333333333332 0.0013333333333333333 -0.047333333333333324 0.023333333333333334 -0.013333333333333332 0.0026666666666666666 -0.009333333333333332 -0.0026666666666666666 -0.047333333333333324 -0.023333333333333334c-0.006666666666666666 -0.0026666666666666666 -0.012666666666666666 -0.0006666666666666666 -0.016 0.003333333333333333l-0.0026666666666666666 0.006666666666666666 -0.011333333333333334 0.2853333333333333 0.003333333333333333 0.013333333333333332 0.006666666666666666 0.008666666666666666 0.06933333333333333 0.049333333333333326 0.009999999999999998 0.0026666666666666666 0.008 -0.0026666666666666666 0.06933333333333333 -0.049333333333333326 0.008 -0.010666666666666666 0.0026666666666666666 -0.011333333333333334 -0.011333333333333334 -0.2846666666666666c-0.0013333333333333333 -0.006666666666666666 -0.005999999999999999 -0.011333333333333334 -0.011333333333333334 -0.011999999999999999Zm0.17666666666666667 -0.07533333333333334 -0.008666666666666666 0.0013333333333333333 -0.12333333333333332 0.062 -0.006666666666666666 0.006666666666666666 -0.002 0.007333333333333332 0.011999999999999999 0.2866666666666666 0.003333333333333333 0.008 0.005333333333333333 0.004666666666666666 0.134 0.062c0.008 0.0026666666666666666 0.015333333333333332 0 0.019333333333333334 -0.005333333333333333l0.0026666666666666666 -0.009333333333333332 -0.02266666666666667 -0.4093333333333333c-0.002 -0.008 -0.006666666666666666 -0.013333333333333332 -0.013333333333333332 -0.014666666666666665Zm-0.4766666666666666 0.0013333333333333333a0.015333333333333332 0.015333333333333332 0 0 0 -0.018 0.004l-0.004 0.009333333333333332 -0.02266666666666667 0.4093333333333333c0 0.008 0.004666666666666666 0.013333333333333332 0.011333333333333334 0.016l0.009999999999999998 -0.0013333333333333333 0.134 -0.062 0.006666666666666666 -0.005333333333333333 0.0026666666666666666 -0.007333333333333332 0.011333333333333334 -0.2866666666666666 -0.002 -0.008 -0.006666666666666666 -0.006666666666666666 -0.12266666666666666 -0.06133333333333333Z" stroke-width="0.6667"></path>
    <path fill="#3b84f1" d="M8.818666666666665 1.792a1.3333333333333333 1.3333333333333333 0 0 0 -1.6373333333333333 0l-5.589333333333333 4.346666666666666C1.0906666666666665 6.529999999999999 1.3666666666666665 7.333333333333333 2.002 7.333333333333333H2.6666666666666665v5.333333333333333a1.3333333333333333 1.3333333333333333 0 0 0 1.3333333333333333 1.3333333333333333h8a1.3333333333333333 1.3333333333333333 0 0 0 1.3333333333333333 -1.3333333333333333v-5.333333333333333h0.6646666666666666c0.6346666666666666 0 0.912 -0.8033333333333333 0.41 -1.194l-5.589333333333333 -4.346666666666666ZM8.666666666666666 12.666666666666666v-4a0.6666666666666666 0.6666666666666666 0 0 0 -1.3333333333333333 0v4H4v-5.993333333333333c0 -0.21133333333333332 -0.09733333333333333 -0.39999999999999997 -0.25 -0.5233333333333333L8 2.844666666666667l4.25 3.3053333333333335a0.6719999999999999 0.6719999999999999 0 0 0 -0.25 0.5233333333333333V12.666666666666666h-3.333333333333333Z" stroke-width="0.6667"></path>
  </g>
</svg>